# xmcd CD database file
#
# Track frame offsets:
#	150
#	12505
#	26610
#	40635
#	54205
#	65992
#	77746
#	91331
#	108628
#	123456
#	136849
#	147416
#	161731
#	173003
#	184574
#	205023
#	215085
#	227495
#	238065
#	248193
#	258836
#	271312
#	286769
#	296147
#
# Disc length: 4124 seconds
#
# Revision: 3
# Processed by: cddbd v1.5.2PL0 Copyright (c) Steve Scherf et al.
# Submitted via: CDex 1.51
#
DISCID=5c101a18
DTITLE=Kenny Rogers - Autograph Collection 2
DYEAR=1972
DGENRE=Country
TTITLE0=Reuben James
TTITLE1=Sunshine
TTITLE2=Molly
TTITLE3=Shine On Ruby Mountain
TTITLE4=Elvira
TTITLE5=I Just Want to Give My Love for You
TTITLE6=I'm Gonna Sing You A Sad Song Suzy
TTITLE7=Sommeting's Burning
TTITLE8=All God's Lonely Children
TTITLE9=A Stranger In My Place
TTITLE10=Good Time Liberator 
TTITLE11=Its Raining In My Mind
TTITLE12=Girl Get A Hold of Youself
TTITLE13=Calico Silver
TTITLE14=Lay It Down
TTITLE15=New Design
TTITLE16=Shadow In The Corner Of Your Mind
TTITLE17=Trying Just As Hard
TTITLE18=Where Does Rosie Go?
TTITLE19=Last Few Threads Of Love
TTITLE20=Love Woman
TTITLE21=My Washington Woman
TTITLE22=Once Again She's All Alone
TTITLE23=It's Gonna Get Better
EXTD=Go Entertain\nwww.goentertain.tv YEAR: 1972
EXTT0=
EXTT1=
EXTT2=
EXTT3=
EXTT4=
EXTT5=
EXTT6=
EXTT7=
EXTT8=
EXTT9=
EXTT10=
EXTT11=
EXTT12=
EXTT13=
EXTT14=
EXTT15=
EXTT16=
EXTT17=
EXTT18=
EXTT19=
EXTT20=
EXTT21=
EXTT22=
EXTT23=
PLAYORDER=
